<svg width="58" height="58" viewBox="0 0 58 58" fill="none" xmlns="http://www.w3.org/2000/svg">
  <g>
    <rect x="1" y="-1" width="56" height="56" rx="28" transform="matrix(1 0 0 -1 0 56)"
          stroke="#DDDDDD" stroke-width="2"/>
    <g>
      <path
      d="M11.2596 27.1619C11.6411 32.0336 20.3961 38.4799 25.626 41.143L23.4508 33.6761L28.4891 28.5979L25.626 23.0009C24.4918 20.9481 20.3975 17.3212 17.0705 18.2532C12.9118 19.4183 10.8815 22.3351 11.2596 27.1619Z"
      stroke="#A9A9A9" stroke-width="2.5" stroke-linejoin="round"/>
      <path
      d="M46.7326 27.1619C46.3431 32.0336 37.4382 38.4799 32.0994 41.143L30.2462 34.5102L35.9818 29.275L32.0994 23.0009C33.2572 20.9481 37.4043 17.3212 40.8006 18.2532C45.046 19.4183 47.1185 22.3351 46.7326 27.1619Z"
      stroke="#A9A9A9" stroke-width="2.5" stroke-linejoin="round"/>
    </g>
  </g>
</svg>
