<svg width="28" height="30" viewBox="0 0 28 30" fill="none" xmlns="http://www.w3.org/2000/svg">
<path d="M26.0151 17.0378L3.9538 29.732C3.64754 29.8955 3.30442 29.9775 2.95738 29.97C2.61035 29.9625 2.27107 29.8659 1.97211 29.6894C1.67315 29.5128 1.42456 29.2623 1.25022 28.9619C1.07588 28.6615 0.981647 28.3212 0.976562 27.9739V2.49621C0.986622 2.15137 1.08448 1.81482 1.26087 1.51843C1.43725 1.22203 1.68632 0.975624 1.98448 0.802539C2.28264 0.629455 2.62002 0.535427 2.96465 0.529366C3.30927 0.523304 3.64974 0.605408 3.9538 0.7679L26.0151 13.5216C26.3175 13.701 26.568 13.956 26.742 14.2617C26.916 14.5673 27.0075 14.913 27.0075 15.2648C27.0075 15.6166 26.916 15.9623 26.742 16.268C26.568 16.5737 26.3175 16.8287 26.0151 17.008" fill="#F38C47"/>
</svg>
