<svg width="62" height="60" viewBox="0 0 62 62" fill="none" xmlns="http://www.w3.org/2000/svg">
  <path
  d="M30.9999 57.5547C46.9364 57.5547 59.8554 45.218 59.8554 29.9999C59.8554 14.7819 46.9364 2.44519 30.9999 2.44519C15.0635 2.44519 2.14441 14.7819 2.14441 29.9999C2.14441 45.218 15.0635 57.5547 30.9999 57.5547Z"
  stroke="#DDDDDD" stroke-opacity="0.89" stroke-width="2" stroke-miterlimit="10"/>
  <path
  d="M35.6719 31.2675L19.6799 40.2658C19.4579 40.3817 19.2092 40.4398 18.9576 40.4345C18.706 40.4292 18.4601 40.3607 18.2434 40.2356C18.0267 40.1104 17.8465 39.9328 17.7201 39.7199C17.5937 39.5069 17.5254 39.2658 17.5217 39.0195V20.9597C17.529 20.7152 17.6 20.4767 17.7278 20.2666C17.8557 20.0565 18.0362 19.8818 18.2524 19.7591C18.4685 19.6364 18.7131 19.5698 18.9629 19.5655C19.2127 19.5612 19.4595 19.6194 19.6799 19.7346L35.6719 28.775C35.8911 28.9022 36.0727 29.083 36.1988 29.2996C36.325 29.5163 36.3913 29.7613 36.3913 30.0107C36.3913 30.2601 36.325 30.5052 36.1988 30.7218C36.0727 30.9385 35.8911 31.1193 35.6719 31.2464"
  fill="#F38C47"/>
  <rect x="39.0869" y="19.5652" width="5.3913" height="20.8696" rx="2.69565" fill="#F38C47"/>
</svg>
