<svg width="84" height="80" viewBox="0 0 84 84" fill="none" xmlns="http://www.w3.org/2000/svg">
  <g>
    <path
    d="M42 76.7396C63.5913 76.7396 81.0945 60.2907 81.0945 39.9999C81.0945 19.7092 63.5913 3.26025 42 3.26025C20.4086 3.26025 2.9054 19.7092 2.9054 39.9999C2.9054 60.2907 20.4086 76.7396 42 76.7396Z"
    stroke="#DDDDDD" stroke-width="2" stroke-miterlimit="10"/>
    <path
    d="M59.3128 42.0683L32.0606 57.0025C31.6823 57.1949 31.2584 57.2914 30.8297 57.2826C30.401 57.2738 29.9819 57.1601 29.6126 56.9524C29.2433 56.7447 28.9362 56.45 28.7209 56.0966C28.5055 55.7431 28.3891 55.3429 28.3828 54.9342V24.9605C28.3952 24.5548 28.5161 24.1588 28.734 23.8101C28.9519 23.4615 29.2596 23.1716 29.6279 22.9679C29.9962 22.7643 30.413 22.6537 30.8387 22.6465C31.2644 22.6394 31.685 22.736 32.0606 22.9272L59.3128 37.9316C59.6863 38.1425 59.9957 38.4426 60.2107 38.8022C60.4257 39.1618 60.5387 39.5685 60.5387 39.9824C60.5387 40.3963 60.4257 40.803 60.2107 41.1626C59.9957 41.5222 59.6863 41.8222 59.3128 42.0332"
    fill="#F38C47"/>
  </g>
</svg>
