<svg width="157" height="32" viewBox="0 0 157 32" fill="none" xmlns="http://www.w3.org/2000/svg">
<path d="M15.2963 0C22.5005 0 29.4672 5.35726 29.3721 13.7031L19.4181 13.8271C19.4181 9.84013 17.6364 8.71778 14.7321 8.71778C12.0595 8.71778 10.9043 11.3931 10.9043 16.261C10.9043 20.4796 12.5999 23.3475 15.0617 23.3475C17.2592 23.3475 19.4359 21.0636 19.5309 18.1762L29.4612 18.3328C29.4612 24.1762 22.3045 32 15.2072 32C5.85602 31.9739 0 26.0685 0 16.2904C0 6.68515 6.08764 0 15.2963 0Z" fill="#38424B"/>
<path d="M47.9645 31.9739H46.346V22.5122H41.7937C35.7238 22.5122 30.4023 18.633 30.4023 11.3703C30.4023 4.10767 35.7238 0 41.7937 0H48.0535L47.9645 31.9739ZM46.346 14.3556V8.48287H43.8724C42.0431 8.48287 41.0038 9.70636 41.0038 11.3964C41.0038 13.0865 42.0431 14.3556 43.8724 14.3556H46.346Z" fill="#38424B"/>
<path d="M74.8545 0H98.3142V8.80914H85.248V12.0718H95.9385V19.5759H85.248V23.1648H98.3142V31.9739H74.8545V0Z" fill="#38424B"/>
<path d="M100.095 0H115.98C122.049 0 127.371 4.15334 127.371 11.3703C127.371 18.5873 122.049 22.5122 115.977 22.5122H110.786V31.9739H100.095V0ZM113.901 14.3556C115.73 14.3556 116.769 13.0865 116.769 11.3964C116.769 9.70636 115.73 8.48287 113.901 8.48287H110.786V14.3556H113.901Z" fill="#38424B"/>
<path d="M144.176 27.0799H134.988L133.741 31.9739H123.181L132.576 0H147.335L156.856 31.9739H145.34L144.176 27.0799ZM142.222 18.5971L142.097 18.1794C141.64 16.261 141.39 13.6411 141.39 10.3491C141.39 8.88744 141.432 7.17673 141.515 5.21697H138.106C138.147 6.19576 138.189 7.19413 138.189 8.15334C138.228 11.5194 137.879 14.8773 137.15 18.1468L137.025 18.5971H142.222Z" fill="#38424B"/>
<path d="M62.5041 0H46.6436V31.9739H57.3341V22.5122H62.5041C68.5739 22.5122 73.8954 18.5971 73.8954 11.3703C73.8954 4.14356 68.5739 0 62.5041 0ZM50.2278 21.8401L50.2991 21.3768C50.7216 18.074 50.9201 14.7413 50.893 11.4062C50.893 10.4568 50.8693 9.77488 50.8455 8.46982H52.8233C52.7757 10.4274 52.752 12.1501 52.752 13.6052C52.7172 16.2228 52.8542 18.8397 53.1618 21.4356L53.2331 21.8597L50.2278 21.8401ZM60.4254 14.3556H57.3341V8.48287H60.4254C62.2547 8.48287 63.294 9.70636 63.294 11.3964C63.294 13.0865 62.2547 14.3556 60.4254 14.3556Z" fill="#38424B"/>
</svg>
