<svg width="161" height="51" viewBox="0 0 161 51" fill="none" xmlns="http://www.w3.org/2000/svg">
  <g id="sphere">
    <path
    d="M11.9486 41.4876C19.4744 41.4876 23.874 37.3045 23.874 31.4022C23.874 27.4483 21.5584 25.2135 18.085 23.7809L14.6695 22.291C12.4118 21.3742 11.7171 20.6865 11.7171 19.6551C11.7171 18.2798 12.9907 17.4775 14.901 17.4775C16.8114 17.4775 18.2008 18.509 18.2008 19.7697C18.2587 20.4573 18.4902 20.9157 19.127 20.9157H24.8002C25.4949 20.9157 26.0159 20.6292 26.1317 19.5404C26.6527 14.7843 21.79 10.9449 14.901 10.9449C7.78056 10.9449 3.49669 14.7843 3.49669 20.3427C3.49669 24.2966 5.7544 26.5888 9.8646 28.3079L13.338 29.7978C14.9589 30.4854 15.6536 31.173 15.6536 32.3191C15.6536 33.8663 14.2642 34.8978 12.1802 34.8978C9.92249 34.8978 8.35946 33.5225 8.41735 31.6315C8.41735 31.1157 8.01212 30.7719 7.43322 30.7719H1.41265C0.660074 30.7719 0.0811733 31.0011 0.0232832 31.918C-0.381947 36.9034 4.53871 41.4876 11.9486 41.4876Z"
    fill="#0F0F0E"/>
    <path
    d="M24.4901 51H30.5106C31.0895 51 31.7842 50.4843 31.9 49.8539L33.7525 41.0292C33.9261 40.1697 34.3893 39.8258 34.9103 39.8258C36.0102 39.8258 36.9364 41.4876 40.873 41.4876C44.5779 41.4876 47.4145 39.9978 49.5565 37.591C53.0878 33.5798 54.4192 25.8438 54.4192 20.9157C54.4192 18.509 53.7824 16.3888 52.6825 14.727C51.1195 12.3775 48.5723 10.9449 45.7936 10.9449C41.2203 10.9449 39.8888 13.0652 38.5574 13.0652C37.5153 13.0652 37.9206 11.7472 36.647 11.7472H32.8262C32.2473 11.7472 31.5527 12.2629 31.4369 12.8933L23.6217 49.8539C23.5059 50.4843 23.8533 51 24.4901 51ZM36.3575 29.3393C36.3575 27.2764 37.3417 22.8067 38.6731 20.9157C39.4836 19.7124 40.5256 19.1966 42.0308 19.1966C43.7675 19.1966 44.8674 19.9416 45.5042 20.973C45.8515 21.6034 46.0252 22.291 46.0252 23.0933C46.0252 25.0989 45.041 29.5685 43.7096 31.4595C42.8991 32.7202 41.7992 33.1787 40.2941 33.1787C38.6731 33.1787 37.6311 32.5483 36.9943 31.6315C36.5891 31.0011 36.3575 30.1989 36.3575 29.3393Z"
    fill="#0F0F0E"/>
    <path
    d="M55.6581 40.6854H61.7365C62.3733 40.6854 63.0101 40.1697 63.1259 39.5393L66.7151 22.9787C67.2361 20.4573 69.0307 19.1966 71.2884 19.1966C74.0092 19.1966 75.167 20.8011 74.7039 22.9787L71.0568 39.5393C70.9411 40.1697 71.3463 40.6854 71.9831 40.6854H78.0615C78.6983 40.6854 79.3351 40.1697 79.4509 39.5393L83.1559 22.2337C84.4873 16.1595 81.6507 10.9449 75.3407 10.9449C71.7515 10.9449 70.8253 12.2056 69.7254 12.2056C69.2622 12.2056 69.0307 11.9764 69.1465 11.4034L71.3463 1.14607C71.4621 0.573033 71.2884 0 70.4779 0H64.3995C63.8206 0 63.068 0.515731 62.9522 1.14607L54.7318 39.5393C54.616 40.1697 55.0213 40.6854 55.6581 40.6854Z"
    fill="#0F0F0E"/>
    <path
    d="M97.1359 41.4876C102.983 41.4876 107.035 38.909 109.235 33.0067C109.524 32.2618 109.351 31.6315 108.54 31.6315H103.33C102.636 31.6315 102.057 31.8607 101.536 32.6629C100.841 34.1528 99.3937 34.7831 97.3675 34.7831C94.994 34.7831 92.7942 33.3506 93.1994 29.9124C93.2573 29.3393 93.6047 29.1101 94.0099 29.1101H109.351C110.045 29.1101 110.682 28.5371 110.798 27.9067L111.319 25.7865C112.882 18.3944 109.582 10.9449 100.204 10.9449C90.3628 10.9449 85.5 19.3685 85.5 29.9697C85.5 37.018 90.0155 41.4876 97.1359 41.4876ZM94.6467 22.291C94.8204 19.827 96.6149 17.4202 99.9726 17.4202C102.635 17.4202 104.372 19.3112 104.256 22.0618C104.199 22.5775 103.851 22.8067 103.388 22.8067H95.1098C94.8782 22.8067 94.6467 22.6348 94.6467 22.291Z"
    fill="#0F0F0E"/>
    <path
    d="M112.749 40.6854H118.828C119.464 40.6854 120.101 40.1697 120.217 39.5393L122.938 26.818C123.922 22.0045 126.701 20.2854 130.811 20.2854H132.779C133.416 20.2854 134.053 19.7697 134.168 19.1393L135.558 12.8933C135.674 12.2629 135.268 11.7472 134.632 11.7472H132.49C127.685 11.7472 126.469 14.8989 125.196 14.8989C124.269 14.8989 124.211 13.982 124.211 12.836C124.211 12.0337 123.69 11.7472 123.169 11.7472H118.943C118.307 11.7472 117.67 12.2629 117.554 12.8933L111.823 39.5393C111.707 40.1697 112.112 40.6854 112.749 40.6854Z"
    fill="#0F0F0E"/>
    <path
    d="M146.445 41.4876C152.292 41.4876 156.344 38.909 158.544 33.0067C158.834 32.2618 158.66 31.6315 157.849 31.6315H152.639C151.945 31.6315 151.366 31.8607 150.845 32.6629C150.15 34.1528 148.703 34.7831 146.677 34.7831C144.303 34.7831 142.103 33.3506 142.509 29.9124C142.566 29.3393 142.914 29.1101 143.319 29.1101H158.66C159.355 29.1101 159.991 28.5371 160.107 27.9067L160.628 25.7865C162.191 18.3944 158.891 10.9449 149.513 10.9449C139.672 10.9449 134.809 19.3685 134.809 29.9697C134.809 37.018 139.325 41.4876 146.445 41.4876ZM143.956 22.291C144.129 19.827 145.924 17.4202 149.282 17.4202C151.945 17.4202 153.681 19.3112 153.566 22.0618C153.508 22.5775 153.16 22.8067 152.697 22.8067H144.419C144.187 22.8067 143.956 22.6348 143.956 22.291Z"
    fill="#0F0F0E"/>
  </g>
</svg>
